<?xml version="1.0" encoding="utf-8"?>
<!-- Generator: Adobe Illustrator 26.5.0, SVG Export Plug-In . SVG Version: 6.00 Build 0)  -->
<svg version="1.1" id="Layer_1" xmlns="http://www.w3.org/2000/svg" xmlns:xlink="http://www.w3.org/1999/xlink" x="0px" y="0px"
	 viewBox="0 0 100 100" style="enable-background:new 0 0 100 100;" xml:space="preserve">
<style type="text/css">
	.st0{fill:none;stroke:#231F20;stroke-width:0.75;stroke-miterlimit:10;}
</style>
<path class="st0" d="M33,42.4l-5.5,22.1c-0.4,1-1.5,2.6-3.9,2c0.1,0.1-6.1-1.5-6.1-1.5l-4.2,9.6l11,2.7c2,0.5,4,1,6,1.5l-3.5,14
	l8.4,2.1l3.5-13.8c2.3,0.6,4.5,1.2,6.7,1.7L42,96.6l8.4,2.1l3.5-14c14.4,2.7,25.2,1.6,29.7-11.4c3.7-10.5-0.2-16.5-7.7-20.4
	c5.5-1.3,9.6-4.9,10.8-12.4c1.5-10.2-6.2-15.7-16.9-19.4l3.4-13.8l-8.4-2.1l-3.4,13.5c-2.2-0.6-4.5-1.1-6.7-1.6L58,3.6l-8.4-2.1
	l-3.5,13.8c-1.8-0.4-3.6-0.8-5.4-1.3l0,0l-11.6-2.9l-2.2,9c0,0,6.2,1.4,6.1,1.5c3.4,0.9,4,3.1,3.9,4.9L33,42.4 M67.3,67.6
	C64.7,78,47.1,72.4,41.4,71L46,52.4C51.8,53.8,70.1,56.7,67.3,67.6z M69.9,40.4c-2.4,9.5-17,4.7-21.8,3.5l4.2-16.8
	C57.1,28.3,72.4,30.5,69.9,40.4z"/>
</svg>
