<?xml version="1.0" encoding="utf-8"?>
<!-- Generator: Adobe Illustrator 26.5.0, SVG Export Plug-In . SVG Version: 6.00 Build 0)  -->
<svg version="1.1" id="Layer_1" xmlns="http://www.w3.org/2000/svg" xmlns:xlink="http://www.w3.org/1999/xlink" x="0px" y="0px"
	 viewBox="0 0 100 100" style="enable-background:new 0 0 100 100;" xml:space="preserve">
<style type="text/css">
	.st0{fill:none;stroke:#231F20;stroke-width:0.75;stroke-miterlimit:10;}
</style>
<g>
	<path class="st0" d="M96.1,31.9c-0.1-1.6-0.6-3.2-1.4-4.5c-0.7-1.4-2-2.5-3.5-3.1c-1.5-0.8-3.2-1.1-4.9-1.1H23.1l-4.5,13.6h57.3
		l-9.1,27.8H9.6L5,78.2h63.6c1.9-0.1,3.8-0.4,5.5-1.1c1.8-1,3.8-2,5.5-3.5c1.7-1.3,3.2-2.8,4.5-4.5c1.1-1.7,2-3.4,2.8-5.2l8.4-26.4
		C96.2,35.7,96.4,33.8,96.1,31.9L96.1,31.9z"/>
	<path class="st0" d="M41.2,44.4H7.5L2.9,56.9H37L41.2,44.4z"/>
</g>
</svg>
