<?xml version="1.0" encoding="utf-8"?>
<!-- Generator: Adobe Illustrator 27.5.0, SVG Export Plug-In . SVG Version: 6.00 Build 0)  -->
<svg version="1.1" xmlns="http://www.w3.org/2000/svg" xmlns:xlink="http://www.w3.org/1999/xlink" x="0px" y="0px"
	 viewBox="0 0 410.6 648.8" style="enable-background:new 0 0 410.6 648.8;" xml:space="preserve">
<style type="text/css">
	.st0{opacity:0.2;fill:#111111;}
	.st1{fill:#111111;}
	.st2{fill:#DFD9D9;}
	.st3{fill:#FFFFFF;}
	.st4{fill:#F4F4F4;}
	.st5{fill:#ADADAD;}
	.st6{fill:none;stroke:#FFFFFF;stroke-miterlimit:10;}
	.st7{fill:none;}
	.st8{font-family:'Manrope-Regular';}
	.st9{font-size:13px;}
	.st10{font-family:'Manrope-Bold';}
	.st11{fill:#FFFFFF;stroke:#FFFFFF;stroke-miterlimit:10;}
	.st12{font-family:'Manrope-SemiBold';}
	.st13{font-size:11px;}
	.st14{fill:#999999;}
	.st15{fill:none;stroke:#B7B7B7;stroke-width:0.75;stroke-miterlimit:10;}
	.st16{fill:#2E639D;}
	.st17{font-size:10px;}
	.st18{fill:none;stroke:#AE4786;stroke-miterlimit:10;}
	.st19{fill:#6D6D6D;}
	.st20{fill:none;stroke:#999999;stroke-miterlimit:10;}
	.st21{opacity:0.58;fill:#F7AC9E;stroke:#F05625;stroke-width:3;stroke-miterlimit:10;}
	.st22{fill:none;stroke:#686868;stroke-width:0.5;stroke-miterlimit:10;}
	.st23{fill:none;stroke:#787878;stroke-width:1.25;stroke-miterlimit:10;}
	.st24{opacity:0.94;fill:none;stroke:#A14484;stroke-width:3;stroke-miterlimit:10;}
	.st25{opacity:0.58;fill:#F7AC9E;stroke:#AD3124;stroke-miterlimit:10;}
	.st26{fill:none;stroke:#F16323;stroke-width:2;stroke-linecap:round;stroke-miterlimit:10;}
	.st27{fill:none;stroke:#F16323;stroke-width:2;stroke-linecap:round;stroke-miterlimit:10;stroke-dasharray:2.9832,4.972;}
	.st28{fill:none;stroke:#F16323;stroke-width:2;stroke-linecap:round;stroke-miterlimit:10;stroke-dasharray:3.2346,5.3911;}
	.st29{font-size:8px;}
</style>
<g id="Layer_1">
</g>
<g id="header">
</g>
<g id="phone_x5F_frame">
	<path class="st0" d="M222.3,640.7H46.9C25,640.7,7.3,623,7.3,601.1V145.6c0-21.9,17.7-39.6,39.6-39.6h175.4
		c21.9,0,39.6,17.7,39.6,39.6v455.5C261.9,623,244.1,640.7,222.3,640.7z"/>
	<g>
		<rect x="21.7" y="113.3" class="st1" width="234.1" height="70.1"/>
		<rect x="24" y="183.4" class="st2" width="234.1" height="438.5"/>
		<path class="st3" d="M235.3,519H46.8c-3.6,0-6.5-2.9-6.5-6.5V235.6c0-3.6,2.9-6.5,6.5-6.5h188.5c3.6,0,6.5,2.9,6.5,6.5v276.8
			C241.8,516,238.9,519,235.3,519z"/>
		<path class="st4" d="M233.7,100.3H48.3c-19.2,0-34.9,15.6-34.9,34.9v464.9c0,19.2,15.6,34.9,34.9,34.9h185.4
			c19.2,0,34.9-15.6,34.9-34.9V135.2C268.6,115.9,252.9,100.3,233.7,100.3z M255.8,599c0,12.7-10.3,22.9-22.9,22.9H49.2
			c-12.7,0-22.9-10.3-22.9-22.9V136.3c0-12.7,10.3-22.9,22.9-22.9h33.3c0,7.1,5.8,12.9,12.9,12.9h89.8c7.1,0,12.9-5.8,12.9-12.9
			h34.8c12.7,0,22.9,10.3,22.9,22.9V599z"/>
		<path class="st5" d="M157.1,116.6h-32.2c-1.8,0-3.3-1.5-3.3-3.3v0c0-1.8,1.5-3.3,3.3-3.3h32.2c1.8,0,3.3,1.5,3.3,3.3v0
			C160.4,115.1,158.9,116.6,157.1,116.6z"/>
		<circle class="st5" cx="170" cy="113.3" r="3.3"/>
		<g>
			<circle class="st6" cx="48.8" cy="157.9" r="11.2"/>
			<circle class="st6" cx="48.8" cy="157.9" r="1.1"/>
			<line class="st6" x1="60.1" y1="169.1" x2="50.8" y2="159.8"/>
		</g>
		<rect x="146.7" y="155.4" class="st7" width="67" height="20.3"/>
		<!-- <text transform="matrix(1 0 0 1 147.5559 164.7403)"><tspan x="0" y="0" class="st3 st8 st9">Hi </tspan><tspan x="15.3" y="0" class="st3 st10 st9">Michael</tspan></text> -->
		<circle class="st6" cx="233.3" cy="159" r="11.2"/>
		<circle class="st11" cx="233.3" cy="156.8" r="3.7"/>
		<path class="st11" d="M233.3,170.2c2.9,0,5.5-1.1,7.5-2.9c-1.4-2.7-4.2-4.6-7.5-4.6c-3.3,0-6.1,1.9-7.5,4.6
			C227.9,169.1,230.5,170.2,233.3,170.2z"/>
		<rect x="54.5" y="249.8" class="st7" width="144.1" height="257.4"/>
		<text transform="matrix(1 0 0 1 54.5426 259.2031)"><tspan x="0" y="0" class="st1 st8 st9">ACME</tspan><tspan x="0" y="36" class="st1 st8 st9">ACME LTD</tspan><tspan x="0" y="72" class="st1 st12 st13">Private Company</tspan><tspan x="0" y="108" class="st1 st12 st13">129232371</tspan><tspan x="0" y="144" class="st14 st12 st13">Registered address</tspan><tspan x="0" y="180" class="st14 st12 st13">Description of goods</tspan><tspan x="0" y="216" class="st14 st12 st13">Web domain</tspan></text>
		<rect x="43.3" y="201.6" class="st7" width="163.2" height="17.4"/>
		<text transform="matrix(1 0 0 1 43.3283 210.9274)" class="st1 st10 st9">Company details</text>
		<line class="st15" x1="54.4" y1="265.1" x2="228.6" y2="265.1"/>
		<line class="st15" x1="54.4" y1="302.1" x2="228.6" y2="302.1"/>
		<line class="st15" x1="54.4" y1="374.1" x2="228.6" y2="374.1"/>
		<line class="st15" x1="54.4" y1="411.1" x2="228.6" y2="411.1"/>
		<line class="st15" x1="54.4" y1="446.1" x2="228.6" y2="446.1"/>
		<line class="st15" x1="54.4" y1="482.1" x2="228.6" y2="482.1"/>
		<rect x="43.3" y="534.6" class="st7" width="163.2" height="17.4"/>
		<text transform="matrix(1 0 0 1 43.3283 543.9274)" class="st1 st10 st9">API keys</text>
		<path class="st3" d="M235.3,606.3H46.8c-3.6,0-6.5-2.9-6.5-6.5v-34.1c0-3.6,2.9-6.5,6.5-6.5h188.5c3.6,0,6.5,2.9,6.5,6.5v34.1
			C241.8,603.4,238.9,606.3,235.3,606.3z"/>
		<rect x="54.5" y="578.8" class="st7" width="33.8" height="21.1"/>
		<text transform="matrix(1 0 0 1 54.5426 586.7631)" class="st1 st12 st13">API    </text>
		<path class="st16" d="M228,594h-71c-1.8,0-3.3-1.5-3.3-3.3v-14.8c0-1.8,1.5-3.3,3.3-3.3h71c1.8,0,3.3,1.5,3.3,3.3v14.8
			C231.3,592.5,229.8,594,228,594z"/>
		<rect x="164.3" y="579.8" class="st7" width="72" height="21.1"/>
		<text transform="matrix(1 0 0 1 164.2594 587.0429)" class="st3 st10 st17">REVEAL KEY</text>
		<rect x="77.9" y="580.7" class="st7" width="63.6" height="8.7"/>
		<text transform="matrix(1 0 0 1 77.9429 588.5782)" class="st1 st12 st13"> *   *   *   *   *  </text>
	</g>
	<path class="st0" d="M350.8,547.8H175.4c-21.9,0-39.6-17.7-39.6-39.6V52.7c0-21.9,17.7-39.6,39.6-39.6h175.4
		c21.9,0,39.6,17.7,39.6,39.6v455.5C390.4,530.1,372.6,547.8,350.8,547.8z"/>
	<g>
		<rect x="149.3" y="21.1" class="st1" width="234.1" height="70.1"/>
		<rect x="151.5" y="91.2" class="st2" width="234.1" height="438.5"/>
		<path class="st3" d="M362.8,314.4H174.3c-3.6,0-6.5-2.9-6.5-6.5V113.4c0-3.6,2.9-6.5,6.5-6.5h188.5c3.6,0,6.5,2.9,6.5,6.5v194.6
			C369.3,311.5,366.4,314.4,362.8,314.4z"/>
		<path class="st3" d="M362.8,514.4H174.3c-3.6,0-6.5-2.9-6.5-6.5V374.6c0-3.6,2.9-6.5,6.5-6.5h188.5c3.6,0,6.5,2.9,6.5,6.5v133.4
			C369.3,511.5,366.4,514.4,362.8,514.4z"/>
		<path class="st4" d="M361.2,8.1H175.9c-19.2,0-34.9,15.6-34.9,34.9v464.9c0,19.2,15.6,34.9,34.9,34.9h185.4
			c19.2,0,34.9-15.6,34.9-34.9V42.9C396.1,23.7,380.5,8.1,361.2,8.1z M383.3,506.7c0,12.7-10.3,22.9-22.9,22.9H176.7
			c-12.7,0-22.9-10.3-22.9-22.9V44c0-12.7,10.3-22.9,22.9-22.9H210c0,7.1,5.8,12.9,12.9,12.9h89.8c7.1,0,12.9-5.8,12.9-12.9h34.8
			c12.7,0,22.9,10.3,22.9,22.9V506.7z"/>
		<path class="st5" d="M284.6,24.3h-32.2c-1.8,0-3.3-1.5-3.3-3.3v0c0-1.8,1.5-3.3,3.3-3.3h32.2c1.8,0,3.3,1.5,3.3,3.3v0
			C287.9,22.9,286.4,24.3,284.6,24.3z"/>
		<circle class="st5" cx="297.5" cy="21.1" r="3.3"/>
		<g>
			<circle class="st6" cx="176.4" cy="65.6" r="11.2"/>
			<circle class="st6" cx="176.4" cy="65.6" r="1.1"/>
			<line class="st6" x1="187.6" y1="76.8" x2="178.3" y2="67.6"/>
		</g>
		<rect x="274.3" y="63.1" class="st7" width="67" height="20.3"/>
		<text transform="matrix(1 0 0 1 275.0869 72.4793)"><tspan x="0" y="0" class="st3 st8 st9">Hi </tspan><tspan x="15.3" y="0" class="st3 st10 st9">Michael</tspan></text>
		<circle class="st6" cx="360.9" cy="66.7" r="11.2"/>
		<circle class="st11" cx="360.9" cy="64.5" r="3.7"/>
		<path class="st11" d="M360.9,77.9c2.9,0,5.5-1.1,7.5-2.9c-1.4-2.7-4.2-4.6-7.5-4.6s-6.1,1.9-7.5,4.6
			C355.4,76.8,358,77.9,360.9,77.9z"/>
		<rect x="182.1" y="120.6" class="st7" width="97.7" height="115.7"/>
		<text transform="matrix(1 0 0 1 182.0755 127.7819)"><tspan x="0" y="0" class="st1 st10 st17">Transactions</tspan><tspan x="0" y="25" class="st1 st8 st9">Bitcoin</tspan><tspan x="0" y="50" class="st1 st8 st9">Ethereum</tspan><tspan x="0" y="75" class="st1 st8 st9">Litecoin</tspan><tspan x="0" y="100" class="st1 st8 st9">Tether</tspan></text>
		<rect x="259.1" y="120.6" class="st7" width="97.7" height="115.7"/>
		<text transform="matrix(1 0 0 1 323.5726 152.7819)"><tspan x="0" y="0" class="st1 st8 st9">8,327</tspan><tspan x="0.5" y="25" class="st1 st8 st9">4,129</tspan><tspan x="11.5" y="50" class="st1 st8 st9">327</tspan><tspan x="0.6" y="75" class="st1 st8 st9">1,256</tspan></text>
		<line class="st18" x1="182.1" y1="249" x2="356.1" y2="249"/>
		<g>
			<circle class="st3" cx="270.4" cy="249" r="14.6"/>
			<g>
				<line class="st18" x1="270.4" y1="257.9" x2="270.4" y2="240.3"/>
				<polyline class="st18" points="266.1,244.6 270.4,240.3 274.7,244.6 				"/>
				<polyline class="st18" points="266.1,253.5 270.4,257.9 274.7,253.5 				"/>
			</g>
		</g>
		<rect x="182.1" y="264.6" class="st7" width="97.7" height="43.8"/>
		<text transform="matrix(1 0 0 1 182.0755 271.7819)"><tspan x="0" y="0" class="st1 st10 st17">Transactions</tspan><tspan x="0" y="25" class="st1 st8 st9">Bitcoin</tspan></text>
		<rect x="259.1" y="264.6" class="st7" width="97.7" height="45.8"/>
		<text transform="matrix(1 0 0 1 284.8841 296.7819)" class="st1 st8 st9">$101,965.91</text>
		<rect x="169.1" y="333.6" class="st7" width="146.6" height="43.8"/>
		<text transform="matrix(1 0 0 1 169.0755 342.942)" class="st19 st8 st9">Sales by currency</text>
		<line class="st20" x1="167.8" y1="353" x2="369.3" y2="353"/>
		<path class="st21" d="M197.1,495.1"/>
		<rect x="197.1" y="402.1" class="st22" width="158.1" height="89.8"/>
		<line class="st22" x1="197.1" y1="420.5" x2="355.2" y2="420.5"/>
		<line class="st22" x1="355.2" y1="438.5" x2="197.1" y2="438.5"/>
		<line class="st22" x1="197.1" y1="456.7" x2="355.2" y2="456.7"/>
		<line class="st22" x1="355.2" y1="474.2" x2="197.1" y2="474.2"/>
		<path class="st23" d="M355.2,441.7"/>
		<path class="st24" d="M317.3,443"/>
		<path class="st24" d="M233.5,466.7"/>
		<rect x="241" y="450.1" class="st25" width="12" height="41.8"/>
		<rect x="211.8" y="443.8" class="st25" width="12" height="48.1"/>
		<rect x="299.1" y="451.2" class="st25" width="12" height="40.7"/>
		<rect x="328.1" y="484.4" class="st25" width="12" height="7.5"/>
		<rect x="270.2" y="466.7" class="st25" width="12" height="25.2"/>
		<g>
			<g>
				<line class="st26" x1="217.8" y1="433.1" x2="219.2" y2="433.6"/>
				<polyline class="st27" points="224,435.2 247,443 276.1,450.1 302.4,478.4 				"/>
				<polyline class="st26" points="304.1,480.3 305.1,481.4 306.4,480.6 				"/>
				<line class="st28" x1="310.9" y1="477.7" x2="330.5" y2="465.3"/>
				<line class="st26" x1="332.8" y1="463.8" x2="334.1" y2="463"/>
			</g>
		</g>
		<rect x="165.3" y="398.3" class="st7" width="23.2" height="102.6"/>
		<text transform="matrix(1 0 0 1 176.6091 404.102)"><tspan x="0" y="0" class="st1 st8 st29">0.8</tspan><tspan x="0.6" y="18" class="st1 st8 st29">0.7</tspan><tspan x="-0.3" y="36" class="st1 st8 st29">0.6</tspan><tspan x="0" y="54" class="st1 st8 st29">0.5</tspan><tspan x="-0.1" y="72" class="st1 st8 st29">0.4</tspan><tspan x="0.2" y="90" class="st1 st8 st29">0.3</tspan></text>
		<rect x="219.8" y="377.4" class="st7" width="100.7" height="18.6"/>
		<text transform="matrix(1 0 0 1 248.4603 386.8026)" class="st1 st8 st9">Bitcoin</text>
	</g>
</g>
</svg>
