<svg xmlns="http://www.w3.org/2000/svg" viewBox="0 0 416.7 658.7" xmlns:v="https://vecta.io/nano"><style><![CDATA[.e{fill:#111}.f{font-family:Manrope-Regular}.g{font-size:13px}.h{stroke-miterlimit:10}.i{fill:#fff}.j{fill:none}.k{font-family:Manrope-Bold}.l{font-family:Manrope-SemiBold}.m{font-size:11px}.n{font-size:8px}.o{stroke:#fff}]]></style><g class="e"><path d="M232.8 641.4H57.7c-22 0-39.8-17.8-39.8-39.8V146c0-22 17.8-39.8 39.8-39.8h175.1c22 0 39.8 17.8 39.8 39.8v455.7c0 21.9-17.8 39.7-39.8 39.7z" opacity=".16"/><path d="M32.4 114.1h234.1v70.1H32.4z"/></g><path d="M34.7 184.2h234.1v438.5H34.7z" fill="#dfd9d9"/><path d="M246 519.7H57.5a6.49 6.49 0 0 1-6.5-6.5V236.4a6.49 6.49 0 0 1 6.5-6.5H246a6.49 6.49 0 0 1 6.5 6.5v276.8a6.49 6.49 0 0 1-6.5 6.5z" class="i"/><path d="M244.4 101.1H59.1c-19.2 0-34.9 15.6-34.9 34.9v464.9c0 19.2 15.6 34.9 34.9 34.9h185.4c19.2 0 34.9-15.6 34.9-34.9v-465c-.1-19.2-15.7-34.8-35-34.8zm22.1 498.7c0 12.7-10.3 22.9-22.9 22.9H59.9c-12.7 0-22.9-10.3-22.9-22.9V137c0-12.7 10.3-22.9 22.9-22.9h33.3c0 7.1 5.8 12.9 12.9 12.9h89.8c7.1 0 12.9-5.8 12.9-12.9h34.8c12.7 0 22.9 10.3 22.9 22.9v462.8z" fill="#f4f4f4"/><g fill="#adadad"><path d="M167.8 117.4h-32.2a3.33 3.33 0 0 1-3.3-3.3h0a3.33 3.33 0 0 1 3.3-3.3h32.2a3.33 3.33 0 0 1 3.3 3.3h0a3.33 3.33 0 0 1-3.3 3.3z"/><circle cx="180.7" cy="114.1" r="3.3"/></g><g class="j o"><circle cx="59.6" cy="158.6" r="11.2"/><circle cx="59.6" cy="158.6" r="1.1"/><path d="M70.8 169.9l-9.3-9.3" class="h"/></g><text transform="translate(158.278 165.506)" class="f g i">Hi </text><text transform="translate(173.578 165.506)" class="g i k">Michael</text><g class="o"><circle cx="244.1" cy="159.7" r="11.2" class="j"/><g class="i"><circle cx="244.1" cy="157.5" r="3.7"/><path d="M244.1 170.9c2.9 0 5.5-1.1 7.5-2.9-1.4-2.7-4.2-4.6-7.5-4.6s-6.1 1.9-7.5 4.6c2 1.9 4.6 2.9 7.5 2.9z" class="h"/></g></g><text transform="translate(65.267 259.969)" class="e f g">ACME</text><text transform="translate(65.267 295.969)" class="e f g">ACME LTD</text><text transform="translate(65.267 331.969)" class="e l m">Private Company</text><text transform="translate(65.267 367.969)" class="e l m">129232371</text><text transform="translate(65.267 403.969)" fill="#999" class="l m">Registered address</text><text transform="translate(65.267 439.969)" fill="#999" class="l m">Description of goods</text><text transform="translate(65.267 475.969)" fill="#999" class="l m">Web domain</text><text transform="translate(54.052 211.693)" class="e g k">Company details</text><path d="M65.2 265.9h174.1m-174.1 37h174.1m-174.1 72h174.1m-174.1 37h174.1m-174.1 35h174.1m-174.1 36h174.1" stroke="#b7b7b7" stroke-width=".75" class="h j"/><text transform="translate(54.052 544.693)" class="e g k">API keys</text><path d="M246 607H57.5a6.49 6.49 0 0 1-6.5-6.5v-34.1a6.49 6.49 0 0 1 6.5-6.5H246a6.49 6.49 0 0 1 6.5 6.5v34.1a6.49 6.49 0 0 1-6.5 6.5z" class="i"/><text transform="translate(65.267 587.529)" class="e l m">API    </text><path d="M238.8 594.8h-71a3.33 3.33 0 0 1-3.3-3.3v-14.8a3.33 3.33 0 0 1 3.3-3.3h71a3.33 3.33 0 0 1 3.3 3.3v14.8c-.1 1.8-1.5 3.3-3.3 3.3z" fill="#2e639d"/><text transform="translate(174.984 587.809)" font-size="10" class="i k">REVEAL KEY</text><text transform="translate(88.666 589.344)" class="e l m"> *   *   *   *   *  </text><g class="e"><path d="M361.1 549H186c-22 0-39.8-17.8-39.8-39.8V53.6c0-22 17.8-39.8 39.8-39.8h175.1c22 0 39.8 17.8 39.8 39.8v455.7c0 21.9-17.8 39.7-39.8 39.7z" opacity=".16"/><path d="M160 21.8h234.1v70.1H160z"/></g><path d="M162.2 91.9h234.1v438.5H162.2z" fill="#dfd9d9"/><path d="M373.5 315.2H185a6.49 6.49 0 0 1-6.5-6.5V114.1a6.49 6.49 0 0 1 6.5-6.5h188.5a6.49 6.49 0 0 1 6.5 6.5v194.6a6.49 6.49 0 0 1-6.5 6.5zm0 200H185a6.49 6.49 0 0 1-6.5-6.5V375.3a6.49 6.49 0 0 1 6.5-6.5h188.5a6.49 6.49 0 0 1 6.5 6.5v133.4a6.49 6.49 0 0 1-6.5 6.5z" class="i"/><path d="M372 8.8H186.6c-19.2 0-34.9 15.6-34.9 34.9v464.9c0 19.2 15.6 34.9 34.9 34.9H372c19.2 0 34.9-15.6 34.9-34.9V43.7c-.1-19.3-15.7-34.9-34.9-34.9zm22.1 498.7c0 12.7-10.3 22.9-22.9 22.9H187.4c-12.7 0-22.9-10.3-22.9-22.9V44.8c0-12.7 10.3-22.9 22.9-22.9h33.3c0 7.1 5.8 12.9 12.9 12.9h89.8c7.1 0 12.9-5.8 12.9-12.9h34.8c12.7 0 22.9 10.3 22.9 22.9v462.7h.1z" fill="#f4f4f4"/><g fill="#adadad"><path d="M295.4 25.1h-32.2a3.33 3.33 0 0 1-3.3-3.3h0a3.33 3.33 0 0 1 3.3-3.3h32.2a3.33 3.33 0 0 1 3.3 3.3h0c-.1 1.8-1.5 3.3-3.3 3.3z"/><circle cx="308.3" cy="21.8" r="3.3"/></g><g class="j o"><circle cx="187.1" cy="66.4" r="11.2"/><circle cx="187.1" cy="66.4" r="1.1"/><path d="M198.3 77.6l-9.2-9.3" class="h"/></g><text transform="translate(285.81 73.245)" class="f g i">Hi </text><text transform="translate(301.11 73.245)" class="g i k">Michael</text><g class="o"><circle cx="371.6" cy="67.5" r="11.2" class="j"/><g class="i"><circle cx="371.6" cy="65.3" r="3.7"/><path d="M371.6 78.7c2.9 0 5.5-1.1 7.5-2.9-1.4-2.7-4.2-4.6-7.5-4.6s-6.1 1.9-7.5 4.6c2 1.8 4.6 2.9 7.5 2.9z" class="h"/></g></g><text transform="translate(192.799 128.548)" font-size="10" class="e k">Transactions</text><text transform="translate(192.799 153.548)" class="e f g">Bitcoin</text><text transform="translate(192.799 178.548)" class="e f g">Ethereum</text><text transform="translate(192.799 203.548)" class="e f g">Litecoin</text><text transform="translate(192.799 228.548)" class="e f g">Tether</text><text transform="translate(334.296 153.548)" class="e f g">8,327</text><text transform="translate(334.796 178.548)" class="e f g">4,129</text><text transform="translate(345.796 203.548)" class="e f g">327</text><text transform="translate(334.896 228.548)" class="e f g">1,256</text><path d="M192.8 249.8h174" stroke="#ae4786" class="h j"/><circle cx="281.1" cy="249.8" r="14.6" class="i"/><path d="M281.1 258.6v-17.5m-4.3 4.3l4.3-4.3 4.4 4.3m-8.7 8.9l4.3 4.3 4.4-4.3" stroke="#ae4786" class="h j"/><text transform="translate(192.799 272.548)" font-size="10" class="e k">Transactions</text><text transform="translate(192.799 297.548)" class="e f g">Bitcoin</text><text transform="translate(295.608 297.548)" class="e f g">$101,965.91</text><text transform="translate(179.799 343.708)" fill="#6d6d6d" class="f g">Sales by currency</text><g class="h j"><path d="M178.5 353.8H380" stroke="#999"/><g stroke="#686868" stroke-width=".5"><path d="M207.8 402.9h158.1v89.8H207.8z"/><path d="M207.8 421.3h158.1m0 17.9H207.8m0 18.3h158.1m0 17.5H207.8"/></g></g><path d="M251.7 450.8h12v41.8h-12zm-29.1-6.2h12v48.1h-12zm87.3 7.4h12v40.7h-12zm28.9 33.1h12v7.5h-12zm-57.9-17.7h12v25.2h-12z" opacity=".58" enable-background="new" fill="#f7ac9e" stroke="#ad3124" class="h"/><g stroke="#f16323" stroke-width="2" stroke-linecap="round" class="j h"><path d="M228.5 433.9l1.5.5"/><path d="M234.7 436l23 7.8 29.2 7 26.2 28.4" stroke-dasharray="2.9832,4.972"/><path d="M314.8 481l1 1.1 1.3-.8"/><path d="M321.7 478.4l19.6-12.4" stroke-dasharray="3.2346,5.3911"/><path d="M343.5 464.6l1.3-.8"/></g><text transform="translate(187.333 404.868)" class="e f n">0.8</text><text transform="translate(187.933 422.868)" class="e f n">0.7</text><text transform="translate(187.033 440.868)" class="e f n">0.6</text><text transform="translate(187.333 458.868)" class="e f n">0.5</text><text transform="translate(187.233 476.868)" class="e f n">0.4</text><text transform="translate(187.533 494.868)" class="e f n">0.3</text><text transform="translate(259.183 387.569)" class="e f g">Bitcoin</text></svg>