<?xml version="1.0" encoding="utf-8"?>
<!-- Generator: Adobe Illustrator 27.5.0, SVG Export Plug-In . SVG Version: 6.00 Build 0)  -->
<svg version="1.1" id="Layer_1" xmlns="http://www.w3.org/2000/svg" xmlns:xlink="http://www.w3.org/1999/xlink" x="0px" y="0px"
	 viewBox="0 0 416.7 658.7" style="enable-background:new 0 0 416.7 658.7;" xml:space="preserve">
<style type="text/css">
	.st0{opacity:0.16;fill:#111111;}
	.st1{fill:#111111;}
	.st2{fill:#DFD9D9;}
	.st3{fill:#FFFFFF;}
	.st4{fill:#F4F4F4;}
	.st5{fill:#ADADAD;}
	.st6{fill:none;stroke:#FFFFFF;stroke-miterlimit:10;}
	.st7{fill:none;}
	.st8{font-family:'Manrope';}
	.st9{font-size:13px;}
	.st10{font-family:'Manrope';}
	.st11{fill:#FFFFFF;stroke:#FFFFFF;stroke-miterlimit:10;}
	.st12{font-family:'Manrope';}
	.st13{font-size:11px;}
	.st14{fill:#999999;}
	.st15{fill:none;stroke:#B7B7B7;stroke-width:0.75;stroke-miterlimit:10;}
	.st16{fill:#2E639D;}
	.st17{font-size:10px;}
	.st18{fill:none;stroke:#AE4786;stroke-miterlimit:10;}
	.st19{fill:#6D6D6D;}
	.st20{fill:none;stroke:#999999;stroke-miterlimit:10;}
	.st21{opacity:0.58;fill:#F7AC9E;stroke:#F05625;stroke-width:3;stroke-miterlimit:10;enable-background:new    ;}
	.st22{fill:none;stroke:#686868;stroke-width:0.5;stroke-miterlimit:10;}
	.st23{fill:none;stroke:#787878;stroke-width:1.25;stroke-miterlimit:10;}
	.st24{opacity:0.94;fill:none;stroke:#A14484;stroke-width:3;stroke-miterlimit:10;enable-background:new    ;}
	.st25{opacity:0.58;fill:#F7AC9E;stroke:#AD3124;stroke-miterlimit:10;enable-background:new    ;}
	.st26{fill:none;stroke:#F16323;stroke-width:2;stroke-linecap:round;stroke-miterlimit:10;}
	.st27{fill:none;stroke:#F16323;stroke-width:2;stroke-linecap:round;stroke-miterlimit:10;stroke-dasharray:2.9832,4.972;}
	.st28{fill:none;stroke:#F16323;stroke-width:2;stroke-linecap:round;stroke-miterlimit:10;stroke-dasharray:3.2346,5.3911;}
	.st29{font-size:8px;}
</style>
<path class="st0" d="M232.8,641.4H57.7c-22,0-39.8-17.8-39.8-39.8V146c0-22,17.8-39.8,39.8-39.8h175.1c22,0,39.8,17.8,39.8,39.8
	v455.7C272.6,623.6,254.8,641.4,232.8,641.4z"/>
<g>
	<rect x="32.4" y="114.1" class="st1" width="234.1" height="70.1"/>
	<rect x="34.7" y="184.2" class="st2" width="234.1" height="438.5"/>
	<path class="st3" d="M246,519.7H57.5c-3.6,0-6.5-2.9-6.5-6.5V236.4c0-3.6,2.9-6.5,6.5-6.5H246c3.6,0,6.5,2.9,6.5,6.5v276.8
		C252.5,516.8,249.6,519.7,246,519.7z"/>
	<path class="st4" d="M244.4,101.1H59.1c-19.2,0-34.9,15.6-34.9,34.9v464.9c0,19.2,15.6,34.9,34.9,34.9h185.4
		c19.2,0,34.9-15.6,34.9-34.9v-465C279.3,116.7,263.7,101.1,244.4,101.1z M266.5,599.8c0,12.7-10.3,22.9-22.9,22.9H59.9
		c-12.7,0-22.9-10.3-22.9-22.9V137c0-12.7,10.3-22.9,22.9-22.9h33.3c0,7.1,5.8,12.9,12.9,12.9h89.8c7.1,0,12.9-5.8,12.9-12.9h34.8
		c12.7,0,22.9,10.3,22.9,22.9V599.8z"/>
	<path class="st5" d="M167.8,117.4h-32.2c-1.8,0-3.3-1.5-3.3-3.3l0,0c0-1.8,1.5-3.3,3.3-3.3h32.2c1.8,0,3.3,1.5,3.3,3.3l0,0
		C171.1,115.9,169.6,117.4,167.8,117.4z"/>
	<circle class="st5" cx="180.7" cy="114.1" r="3.3"/>
	<g>
		<circle class="st6" cx="59.6" cy="158.6" r="11.2"/>
		<circle class="st6" cx="59.6" cy="158.6" r="1.1"/>
		<line class="st6" x1="70.8" y1="169.9" x2="61.5" y2="160.6"/>
	</g>
	<rect x="157.5" y="156.1" class="st7" width="67" height="20.3"/>
	<text transform="matrix(1 0 0 1 158.2784 165.5063)" class="st3 st8 st9">Hi </text>
	<text transform="matrix(1 0 0 1 173.5784 165.5063)" class="st3 st10 st9">Michael</text>
	<circle class="st6" cx="244.1" cy="159.7" r="11.2"/>
	<circle class="st11" cx="244.1" cy="157.5" r="3.7"/>
	<path class="st11" d="M244.1,170.9c2.9,0,5.5-1.1,7.5-2.9c-1.4-2.7-4.2-4.6-7.5-4.6s-6.1,1.9-7.5,4.6
		C238.6,169.9,241.2,170.9,244.1,170.9z"/>
	<rect x="65.3" y="250.6" class="st7" width="144.1" height="257.4"/>
	<text transform="matrix(1 0 0 1 65.267 259.9691)" class="st1 st8 st9">ACME</text>
	<text transform="matrix(1 0 0 1 65.267 295.9691)" class="st1 st8 st9">ACME LTD</text>
	<text transform="matrix(1 0 0 1 65.267 331.9691)" class="st1 st12 st13">Private Company</text>
	<text transform="matrix(1 0 0 1 65.267 367.9691)" class="st1 st12 st13">129232371</text>
	<text transform="matrix(1 0 0 1 65.267 403.9691)" class="st14 st12 st13">Registered address</text>
	<text transform="matrix(1 0 0 1 65.267 439.9691)" class="st14 st12 st13">Description of goods</text>
	<text transform="matrix(1 0 0 1 65.267 475.9691)" class="st14 st12 st13">Web domain</text>
	<rect x="54.1" y="202.3" class="st7" width="163.2" height="17.4"/>
	<text transform="matrix(1 0 0 1 54.0517 211.6933)" class="st1 st10 st9">Company details</text>
	<line class="st15" x1="65.2" y1="265.9" x2="239.3" y2="265.9"/>
	<line class="st15" x1="65.2" y1="302.9" x2="239.3" y2="302.9"/>
	<line class="st15" x1="65.2" y1="374.9" x2="239.3" y2="374.9"/>
	<line class="st15" x1="65.2" y1="411.9" x2="239.3" y2="411.9"/>
	<line class="st15" x1="65.2" y1="446.9" x2="239.3" y2="446.9"/>
	<line class="st15" x1="65.2" y1="482.9" x2="239.3" y2="482.9"/>
	<rect x="54.1" y="535.3" class="st7" width="163.2" height="17.4"/>
	<text transform="matrix(1 0 0 1 54.0517 544.6933)" class="st1 st10 st9">API keys</text>
	<path class="st3" d="M246,607H57.5c-3.6,0-6.5-2.9-6.5-6.5v-34.1c0-3.6,2.9-6.5,6.5-6.5H246c3.6,0,6.5,2.9,6.5,6.5v34.1
		C252.5,604.1,249.6,607,246,607z"/>
	<rect x="65.3" y="579.6" class="st7" width="33.8" height="21.1"/>
	<text transform="matrix(1 0 0 1 65.267 587.5291)" class="st1 st12 st13">API    </text>
	<path class="st16" d="M238.8,594.8h-71c-1.8,0-3.3-1.5-3.3-3.3v-14.8c0-1.8,1.5-3.3,3.3-3.3h71c1.8,0,3.3,1.5,3.3,3.3v14.8
		C242,593.3,240.6,594.8,238.8,594.8z"/>
	<rect x="175" y="580.6" class="st7" width="72" height="21.1"/>
	<text transform="matrix(1 0 0 1 174.9838 587.8089)" class="st3 st10 st17">REVEAL KEY</text>
	<rect x="88.7" y="581.4" class="st7" width="63.6" height="8.7"/>
	<text transform="matrix(1 0 0 1 88.6663 589.3441)" class="st1 st12 st13"> *   *   *   *   *  </text>
</g>
<path class="st0" d="M361.1,549H186c-22,0-39.8-17.8-39.8-39.8V53.6c0-22,17.8-39.8,39.8-39.8h175.1c22,0,39.8,17.8,39.8,39.8v455.7
	C400.9,531.2,383.1,549,361.1,549z"/>
<g>
	<rect x="160" y="21.8" class="st1" width="234.1" height="70.1"/>
	<rect x="162.2" y="91.9" class="st2" width="234.1" height="438.5"/>
	<path class="st3" d="M373.5,315.2H185c-3.6,0-6.5-2.9-6.5-6.5V114.1c0-3.6,2.9-6.5,6.5-6.5h188.5c3.6,0,6.5,2.9,6.5,6.5v194.6
		C380,312.3,377.1,315.2,373.5,315.2z"/>
	<path class="st3" d="M373.5,515.2H185c-3.6,0-6.5-2.9-6.5-6.5V375.3c0-3.6,2.9-6.5,6.5-6.5h188.5c3.6,0,6.5,2.9,6.5,6.5v133.4
		C380,512.3,377.1,515.2,373.5,515.2z"/>
	<path class="st4" d="M372,8.8H186.6c-19.2,0-34.9,15.6-34.9,34.9v464.9c0,19.2,15.6,34.9,34.9,34.9H372c19.2,0,34.9-15.6,34.9-34.9
		V43.7C406.8,24.4,391.2,8.8,372,8.8z M394.1,507.5c0,12.7-10.3,22.9-22.9,22.9H187.4c-12.7,0-22.9-10.3-22.9-22.9V44.8
		c0-12.7,10.3-22.9,22.9-22.9h33.3c0,7.1,5.8,12.9,12.9,12.9h89.8c7.1,0,12.9-5.8,12.9-12.9h34.8c12.7,0,22.9,10.3,22.9,22.9v462.7
		H394.1z"/>
	<path class="st5" d="M295.4,25.1h-32.2c-1.8,0-3.3-1.5-3.3-3.3l0,0c0-1.8,1.5-3.3,3.3-3.3h32.2c1.8,0,3.3,1.5,3.3,3.3l0,0
		C298.6,23.6,297.2,25.1,295.4,25.1z"/>
	<circle class="st5" cx="308.3" cy="21.8" r="3.3"/>
	<g>
		<circle class="st6" cx="187.1" cy="66.4" r="11.2"/>
		<circle class="st6" cx="187.1" cy="66.4" r="1.1"/>
		<line class="st6" x1="198.3" y1="77.6" x2="189.1" y2="68.3"/>
	</g>
	<rect x="285" y="63.9" class="st7" width="67" height="20.3"/>
	<text transform="matrix(1 0 0 1 285.8103 73.2452)" class="st3 st8 st9">Hi </text>
	<text transform="matrix(1 0 0 1 301.1103 73.2452)" class="st3 st10 st9">Michael</text>
	<circle class="st6" cx="371.6" cy="67.5" r="11.2"/>
	<circle class="st11" cx="371.6" cy="65.3" r="3.7"/>
	<path class="st11" d="M371.6,78.7c2.9,0,5.5-1.1,7.5-2.9c-1.4-2.7-4.2-4.6-7.5-4.6s-6.1,1.9-7.5,4.6
		C366.1,77.6,368.7,78.7,371.6,78.7z"/>
	<rect x="192.8" y="121.3" class="st7" width="97.7" height="115.7"/>
	<text transform="matrix(1 0 0 1 192.7989 128.5479)" class="st1 st10 st17">Transactions</text>
	<text transform="matrix(1 0 0 1 192.7989 153.5479)" class="st1 st8 st9">Bitcoin</text>
	<text transform="matrix(1 0 0 1 192.7989 178.5479)" class="st1 st8 st9">Ethereum</text>
	<text transform="matrix(1 0 0 1 192.7989 203.5479)" class="st1 st8 st9">Litecoin</text>
	<text transform="matrix(1 0 0 1 192.7989 228.5479)" class="st1 st8 st9">Tether</text>
	<rect x="269.8" y="121.3" class="st7" width="97.7" height="115.7"/>
	<text transform="matrix(1 0 0 1 334.296 153.5479)" class="st1 st8 st9">8,327</text>
	<text transform="matrix(1 0 0 1 334.796 178.5479)" class="st1 st8 st9">4,129</text>
	<text transform="matrix(1 0 0 1 345.796 203.5479)" class="st1 st8 st9">327</text>
	<text transform="matrix(1 0 0 1 334.896 228.5479)" class="st1 st8 st9">1,256</text>
	<line class="st18" x1="192.8" y1="249.8" x2="366.8" y2="249.8"/>
	<g>
		<circle class="st3" cx="281.1" cy="249.8" r="14.6"/>
		<g>
			<line class="st18" x1="281.1" y1="258.6" x2="281.1" y2="241.1"/>
			<polyline class="st18" points="276.8,245.4 281.1,241.1 285.5,245.4 			"/>
			<polyline class="st18" points="276.8,254.3 281.1,258.6 285.5,254.3 			"/>
		</g>
	</g>
	<rect x="192.8" y="265.3" class="st7" width="97.7" height="43.8"/>
	<text transform="matrix(1 0 0 1 192.7989 272.5479)" class="st1 st10 st17">Transactions</text>
	<text transform="matrix(1 0 0 1 192.7989 297.5479)" class="st1 st8 st9">Bitcoin</text>
	<rect x="269.8" y="265.3" class="st7" width="97.7" height="45.8"/>
	<text transform="matrix(1 0 0 1 295.6075 297.5479)" class="st1 st8 st9">$101,965.91</text>
	<rect x="179.8" y="334.3" class="st7" width="146.6" height="43.8"/>
	<text transform="matrix(1 0 0 1 179.7989 343.708)" class="st19 st8 st9">Sales by currency</text>
	<line class="st20" x1="178.5" y1="353.8" x2="380" y2="353.8"/>
	<path class="st21" d="M207.8,495.9"/>
	<rect x="207.8" y="402.9" class="st22" width="158.1" height="89.8"/>
	<line class="st22" x1="207.8" y1="421.3" x2="365.9" y2="421.3"/>
	<line class="st22" x1="365.9" y1="439.2" x2="207.8" y2="439.2"/>
	<line class="st22" x1="207.8" y1="457.5" x2="365.9" y2="457.5"/>
	<line class="st22" x1="365.9" y1="475" x2="207.8" y2="475"/>
	<path class="st23" d="M365.9,442.5"/>
	<path class="st24" d="M328.1,443.8"/>
	<path class="st24" d="M244.2,467.4"/>
	<rect x="251.7" y="450.8" class="st25" width="12" height="41.8"/>
	<rect x="222.6" y="444.6" class="st25" width="12" height="48.1"/>
	<rect x="309.9" y="452" class="st25" width="12" height="40.7"/>
	<rect x="338.8" y="485.1" class="st25" width="12" height="7.5"/>
	<rect x="280.9" y="467.4" class="st25" width="12" height="25.2"/>
	<g>
		<g>
			<line class="st26" x1="228.5" y1="433.9" x2="230" y2="434.4"/>
			<polyline class="st27" points="234.7,436 257.7,443.8 286.9,450.8 313.1,479.2 			"/>
			<polyline class="st26" points="314.8,481 315.8,482.1 317.1,481.3 			"/>
			<line class="st28" x1="321.7" y1="478.4" x2="341.3" y2="466"/>
			<line class="st26" x1="343.5" y1="464.6" x2="344.8" y2="463.8"/>
		</g>
	</g>
	<rect x="176" y="399.1" class="st7" width="23.2" height="102.6"/>
	<text transform="matrix(1 0 0 1 187.3326 404.8675)" class="st1 st8 st29">0.8</text>
	<text transform="matrix(1 0 0 1 187.9326 422.8675)" class="st1 st8 st29">0.7</text>
	<text transform="matrix(1 0 0 1 187.0326 440.8675)" class="st1 st8 st29">0.6</text>
	<text transform="matrix(1 0 0 1 187.3326 458.8675)" class="st1 st8 st29">0.5</text>
	<text transform="matrix(1 0 0 1 187.2326 476.8675)" class="st1 st8 st29">0.4</text>
	<text transform="matrix(1 0 0 1 187.5326 494.8675)" class="st1 st8 st29">0.3</text>
	<rect x="230.5" y="378.2" class="st7" width="100.7" height="18.6"/>
	<text transform="matrix(1 0 0 1 259.1828 387.5691)" class="st1 st8 st9">Bitcoin</text>
</g>
</svg>
