<?xml version="1.0" encoding="utf-8"?>
<!-- Generator: Adobe Illustrator 26.5.0, SVG Export Plug-In . SVG Version: 6.00 Build 0)  -->
<svg version="1.1" id="Layer_1" xmlns="http://www.w3.org/2000/svg" xmlns:xlink="http://www.w3.org/1999/xlink" x="0px" y="0px"
	 viewBox="0 0 800 800" style="enable-background:new 0 0 800 800;" xml:space="preserve">
<style type="text/css">
	.st0{fill:#FFFCFA;}
</style>
<g id="Layer_1_00000020369858327197994880000001440679046317945233_">
</g>
<g>
	<path class="st0" d="M400,17.7c51.6,0,101.6,10.1,148.8,30.1c45.6,19.2,86.4,46.8,121.5,82c35.1,35.1,62.6,76,82,121.5
		c20,47.2,30.1,97.2,30.1,148.8s-10.1,101.6-30.1,148.8c-19.2,45.6-46.8,86.4-82,121.5c-35.1,35.1-76,62.6-121.5,82
		c-47.2,20-97.2,30.1-148.8,30.1s-101.6-10.1-148.8-30.1c-45.6-19.2-86.4-46.8-121.5-82s-62.6-76-82-121.5
		c-20-47.2-30.1-97.2-30.1-148.8s10.1-101.6,30.1-148.8c19.2-45.6,46.8-86.4,82-121.5s76-62.6,121.5-82
		C298.4,27.8,348.4,17.7,400,17.7 M400,16.1C188,16.1,16.1,188,16.1,400S188,783.9,400,783.9S783.9,612,783.9,400S612,16.1,400,16.1
		L400,16.1z"/>
</g>
<g>
	<circle class="st0" cx="400" cy="17.5" r="12.5"/>
</g>
</svg>
