<?xml version="1.0" encoding="utf-8"?>
<!-- Generator: Adobe Illustrator 26.5.0, SVG Export Plug-In . SVG Version: 6.00 Build 0)  -->
<svg version="1.1" id="Layer_1" xmlns="http://www.w3.org/2000/svg" xmlns:xlink="http://www.w3.org/1999/xlink" x="0px" y="0px"
	 viewBox="0 0 100 100" style="enable-background:new 0 0 100 100;" xml:space="preserve">
<style type="text/css">
	
		.st0{clip-path:url(#SVGID_00000147925377071962273640000000401120381790476197_);fill:none;stroke:#231F20;stroke-width:0.75;stroke-miterlimit:10;}
	.st1{fill:none;stroke:#231F20;stroke-width:0.75;stroke-miterlimit:10;}
</style>
<g>
	<g>
		<defs>
			<path id="SVGID_00000012453908943229024290000005653025161116065197_" d="M60.8,9.6c-5.6,3.3-8.9,9.3-8.9,15.6
				C51.1,32,61,38.9,52.2,44.4c-3.3,2-7.6,0.7-9.6-2.7C32.7,25.5,9.1,30.9,8.5,50C8,63.2,23.9,72.9,35.3,65.6
				c6.7-2.7,6.9-14.4,16.5-9.9c7.9,5.5-0.6,12.2,0,19.2c0.6,23.7,35.1,23.7,35.8,0c0-6.3-3.3-12.3-8.9-15.6
				c-5.6-4.2-16.2,1-16.9-9.3c0.5-9.8,11-5.3,16.9-9.3C98.7,28.2,81.7-1.4,60.8,9.6"/>
		</defs>
		<clipPath id="SVGID_00000124873685798018730740000004010643453850838718_">
			<use xlink:href="#SVGID_00000012453908943229024290000005653025161116065197_"  style="overflow:visible;"/>
		</clipPath>
		
			<path style="clip-path:url(#SVGID_00000124873685798018730740000004010643453850838718_);fill:none;stroke:#231F20;stroke-width:0.75;stroke-miterlimit:10;" d="
			M48.2-32.4L131,50.7l-82.8,82.8l-83.1-82.8L48.2-32.4z"/>
	</g>
	<g>
		<path id="SVGID_1_" class="st1" d="M60.8,9.6c-5.6,3.3-8.9,9.3-8.9,15.6C51.1,32,61,38.9,52.2,44.4c-3.3,2-7.6,0.7-9.6-2.7
			C32.7,25.5,9.1,30.9,8.5,50C8,63.2,23.9,72.9,35.3,65.6c6.7-2.7,6.9-14.4,16.5-9.9c7.9,5.5-0.6,12.2,0,19.2
			c0.6,23.7,35.1,23.7,35.8,0c0-6.3-3.3-12.3-8.9-15.6c-5.6-4.2-16.2,1-16.9-9.3c0.5-9.8,11-5.3,16.9-9.3
			C98.7,28.2,81.7-1.4,60.8,9.6"/>
	</g>
</g>
</svg>
