<?xml version="1.0" encoding="utf-8"?>
<!-- Generator: Adobe Illustrator 27.7.0, SVG Export Plug-In . SVG Version: 6.00 Build 0)  -->
<svg version="1.1" id="Layer_1" xmlns="http://www.w3.org/2000/svg" xmlns:xlink="http://www.w3.org/1999/xlink" x="0px" y="0px"
	 viewBox="0 0 100 100" style="enable-background:new 0 0 100 100;" xml:space="preserve">
<g>
	<path d="M38.8,35.5h-3.1c-6.1,0-11.1,5-11.1,11.1v30.2c0,6.1,5,11.1,11.1,11.1H66c6,0,11-5,11-11.1V46.6c0-6.1-5-11.1-11-11.1h-3.2
		c-0.9,0-1.2-0.3-1.2-1.2v-2c0-0.9,0.4-1.2,1.2-1.2H66c8.6,0,15.6,7,15.6,15.6v30.2c0,8.7-7,15.7-15.6,15.7H35.7
		c-8.7,0-15.7-7-15.7-15.7V46.6C20.1,38,27,31,35.7,31h3.1c0.9,0,1.2,0.3,1.2,1.2v2C40.1,35.2,39.8,35.5,38.8,35.5z M39.9,22.3
		c-0.7,0.7-1.1,0.7-1.8,0l-1.4-1.4c-0.7-0.7-0.7-1.1,0-1.8l12.1-12c1.1-1.1,3-1.1,4.2,0l12,12c0.7,0.7,0.7,1.1,0,1.8l-1.4,1.4
		c-0.7,0.7-1,0.7-1.7,0l-8.7-8.7v45.4c0,0.9-0.4,1.2-1.2,1.2h-2.1c-0.9,0-1.2-0.3-1.2-1.2V13.7L39.9,22.3z"/>
</g>
</svg>
