<?xml version="1.0" encoding="utf-8"?>
<!-- Generator: Adobe Illustrator 26.5.0, SVG Export Plug-In . SVG Version: 6.00 Build 0)  -->
<svg version="1.1" id="Layer_1" xmlns="http://www.w3.org/2000/svg" xmlns:xlink="http://www.w3.org/1999/xlink" x="0px" y="0px"
	 viewBox="0 0 100 100" style="enable-background:new 0 0 100 100;" xml:space="preserve">
<style type="text/css">
	.st0{fill:none;stroke:#000000;stroke-width:0.75;stroke-miterlimit:10;}
</style>
<path class="st0" d="M80.6,23.3l-10.3,5.2L20.7,53.9c-0.2-1.3-0.3-2.6-0.3-3.9c0-16.2,13.4-29.5,29.6-29.5c5,0,10,1.3,14.4,3.8
	l5.9-3l0.9-0.4c-6.2-4.5-13.6-6.9-21.2-6.9c-19.8,0-36.1,16.3-36.1,36.1v0c0,0.9,0,1.8,0.1,2.7c0.2,2.6-1.2,5.2-3.6,6.4l-3.1,1.6
	v7.4l9.1-4.7l3-1.5l2.9-1.5l52.3-26.7l5.9-3l12.2-6.2v-7.4L80.6,23.3z"/>
<path class="st0" d="M92.7,31.9L25.3,66.3l-5.9,3L7.3,75.4v7.4l12-6.1l10.3-5.2l49.7-25.3c0.2,1.3,0.3,2.6,0.3,3.9
	c0,16.2-13.4,29.6-29.6,29.6c-5.1,0-10-1.3-14.5-3.8L35.2,76l-6.4,3.3c6.2,4.5,13.6,6.9,21.2,6.9c19.8,0,36.1-16.3,36.1-36.1
	c0-0.9,0-1.9-0.1-2.8c-0.2-2.6,1.2-5.2,3.6-6.4l3.1-1.6L92.7,31.9z"/>
</svg>
